<svg width="56" height="56" viewBox="0 0 56 56" fill="none" xmlns="http://www.w3.org/2000/svg">
<circle cx="28" cy="28" r="28" fill="black" fill-opacity="0.05"/>
<circle cx="28" cy="28" r="28" fill="#FEFEFE"/>
<path d="M32.8395 27.6673C28.739 31.7678 27.2936 31.3137 26.122 30.1421C24.9504 28.9706 24.4964 27.5251 28.5969 23.4246C32.6974 19.3241 36.9712 16.9497 38.1428 18.1213C39.3144 19.2929 36.94 23.5668 32.8395 27.6673Z" stroke="black" stroke-width="2"/>
<path d="M20.1501 31.8705C21.8189 30.2016 22.9704 30.9497 24.142 32.1212C25.3136 33.2928 26.0616 34.4443 24.3927 36.1131C22.7239 37.782 18.5 37.5 18.5 37.5C18.5 37.5 18.4812 33.5394 20.1501 31.8705Z" stroke="black" stroke-width="2"/>
<path d="M21.5 36.5C21 34.5 19.5 36 19.5 34.5L19 37L21.5 36.5Z" fill="black"/>
</svg>
