<svg width="56" height="56" viewBox="0 0 56 56" fill="none" xmlns="http://www.w3.org/2000/svg">
<circle cx="28" cy="28" r="28" fill="black" fill-opacity="0.05"/>
<circle cx="28" cy="28" r="28" fill="#FEFEFE"/>
<mask id="path-2-inside-1" fill="white">
<path d="M20 18C20 17.4477 20.4477 17 21 17H27V38C27 38.5523 26.5523 39 26 39H21C20.4477 39 20 38.5523 20 38V18Z"/>
</mask>
<path d="M20 18C20 17.4477 20.4477 17 21 17H27V38C27 38.5523 26.5523 39 26 39H21C20.4477 39 20 38.5523 20 38V18Z" stroke="black" stroke-width="4" mask="url(#path-2-inside-1)"/>
<path d="M26 18L30 18C33.3137 18 36 20.6863 36 24C36 27.3137 33.3137 30 30 30H26L26 18Z" stroke="black" stroke-width="2"/>
</svg>
